<?xml version="1.0" standalone="no"?>
<!DOCTYPE svg PUBLIC "-//W3C//DTD SVG 20010904//EN"
 "http://www.w3.org/TR/2001/REC-SVG-20010904/DTD/svg10.dtd">
<svg version="1.0" xmlns="http://www.w3.org/2000/svg"
 width="230.000000pt" height="230.000000pt" viewBox="0 0 230.000000 230.000000"
 preserveAspectRatio="xMidYMid meet">

<g transform="translate(0.000000,230.000000) scale(0.100000,-0.100000)"
fill="#000000" stroke="none">
<path d="M0 1150 l0 -1150 1150 0 1150 0 0 1150 0 1150 -1150 0 -1150 0 0
-1150z m1230 548 c0 -13 -21 -79 -45 -147 -25 -68 -44 -126 -42 -128 2 -1 130
51 284 117 154 66 293 120 307 120 64 0 99 -88 57 -142 -22 -28 -14 -25 -459
-148 -369 -102 -365 -104 -266 100 58 119 76 160 70 160 -2 0 -95 -39 -207
-86 -302 -127 -308 -129 -322 -115 -8 8 -8 15 3 26 8 7 121 61 250 119 129 57
255 113 280 125 61 28 90 28 90 -1z m-248 -510 c9 -7 31 -65 48 -128 17 -63
33 -116 35 -118 1 -2 43 53 91 122 49 69 96 127 105 129 9 2 24 0 33 -5 14 -8
16 -31 16 -173 l0 -165 -35 0 -34 0 -3 104 -3 105 -71 -102 c-69 -99 -72 -102
-108 -102 l-38 0 -29 99 c-15 54 -29 100 -31 102 -2 1 -25 -44 -52 -102 l-49
-104 -38 0 c-22 0 -39 4 -39 9 0 16 141 305 157 323 19 21 24 22 45 6z m1054
-51 c1 -1 0 -15 -3 -30 -5 -28 -7 -29 -49 -22 -90 13 -165 -31 -167 -99 -2
-56 21 -71 103 -71 74 0 81 -6 60 -46 -9 -16 -22 -19 -76 -19 -111 0 -170 46
-167 131 5 105 110 176 242 164 30 -3 56 -7 57 -8z m-1513 -8 c52 -24 55 -92
6 -133 -15 -13 -34 -26 -41 -28 -8 -3 -2 -20 20 -55 18 -27 32 -53 32 -56 0
-4 -17 -7 -38 -7 -35 0 -40 4 -71 55 -21 34 -40 55 -52 55 -13 0 -21 -13 -30
-55 -12 -55 -12 -55 -51 -55 -21 0 -38 2 -38 4 0 7 60 260 65 274 6 16 164 17
198 1z m227 -3 c0 -8 -11 -63 -25 -123 -14 -59 -27 -118 -30 -130 -4 -18 -12
-23 -39 -23 -18 0 -35 2 -38 5 -4 5 25 141 53 248 9 34 13 37 44 37 24 0 35
-5 35 -14z m862 -3 c13 -16 78 -232 78 -262 0 -6 -15 -11 -34 -11 -30 0 -35 4
-41 30 -7 30 -7 30 -74 30 -64 0 -68 -1 -84 -30 -15 -24 -25 -30 -53 -30 -19
0 -34 4 -34 8 0 4 13 26 28 48 16 21 59 83 96 137 69 100 89 113 118 80z"/>
<path d="M386 1068 c-13 -50 -8 -58 32 -58 46 0 77 27 67 59 -5 17 -15 21 -50
21 -36 0 -44 -4 -49 -22z"/>
<path d="M1542 1008 l-33 -48 41 0 c43 0 45 3 31 65 l-6 30 -33 -47z"/>
</g>
</svg>
